<svg viewBox="0 0 33 40" xmlns="http://www.w3.org/2000/svg" data-logo="logo">
            <g transform="translate(0, 0) rotate(0)" id="logogram"><path fill="#000000" d="M18.7552 5.82192V0H0.399048V40H18.7552V34.1781C14.9949 34.1781 11.3886 32.6842 8.72978 30.0253C6.07088 27.3664 4.57713 23.7603 4.57713 20C4.57713 16.2397 6.07088 12.6334 8.72978 9.97459C11.3886 7.31568 14.9949 5.82192 18.7552 5.82192Z"></path><path fill="#000000" d="M18.7552 5.82192V34.1781C22.5155 34.1781 26.1218 32.6843 28.7807 30.0253C31.4396 27.3664 32.9333 23.7603 32.9333 20C32.9333 16.2397 31.4396 12.6334 28.7807 9.97459C26.1218 7.31568 22.5155 5.82192 18.7552 5.82192Z"></path></g>
            <g transform="translate(33, 20)" id="logotype"></g>
            
          </svg>